<svg id="b117955f-ed5b-4d12-bbd6-996e34417f15" data-name="Layer 1" xmlns="http://www.w3.org/2000/svg" xmlns:xlink="http://www.w3.org/1999/xlink" width="150px" height="42px" viewBox="0 0 22.082 15.011"><defs><style>.a1b41df1-56ad-490c-8e3d-465b00169405{fill:url(#be9818b1-1c10-4ebb-910c-f85803a2bcba);}.f8fa605e-e1f5-4b69-8dce-b3e61bbbb5f6{fill:url(#bde03cbc-ee90-4f53-aeda-dd4a54859500);}.b2f56ba4-fb6c-4422-a536-22eae60cd3d6{fill:url(#a170d029-330c-4e81-b4b9-260477545cd1);}.bbe7c4a5-da07-4b36-8e0e-ef74619c7a92{fill:url(#f37c497a-7e2f-407b-8e9c-dce9a636c675);}.ac98dee6-8b37-495a-ada8-c3c195292126{fill:url(#a1b99124-3abb-46a8-80b2-187404006e01);}.f3566a1c-4c05-43f2-b41a-beff995201d2{fill:url(#b3c03ab4-55d8-4934-babd-5db765ba6364);}.e4cbd224-dc58-4586-84ef-0f031026104f{fill:url(#e5454780-b2ba-43c1-81d7-3ecdddc4e9db);}.b97d9d08-28ab-4b93-8e29-ba8171d613e8{fill:url(#fc588a10-c654-47de-922e-e57f86ffa0d3);}</style><linearGradient id="be9818b1-1c10-4ebb-910c-f85803a2bcba" x1="534.289" y1="17.399" x2="534.289" y2="3.679" gradientTransform="matrix(-1, 0, 0, 1, 552, 0)" gradientUnits="userSpaceOnUse"><stop offset="0" stop-color="#2c3387"/><stop offset="1" stop-color="#2f4fa2"/></linearGradient><linearGradient id="bde03cbc-ee90-4f53-aeda-dd4a54859500" x1="530.483" y1="18.886" x2="530.483" y2="16.841" gradientTransform="matrix(-1, 0, 0, 1, 552, 0)" gradientUnits="userSpaceOnUse"><stop offset="0" stop-color="#ce5c28"/><stop offset="1" stop-color="#dd7d37"/></linearGradient><linearGradient id="a170d029-330c-4e81-b4b9-260477545cd1" x1="535.666" y1="18.886" x2="535.666" y2="16.841" gradientTransform="matrix(-1, 0, 0, 1, 547.565, -3.972)" xlink:href="#bde03cbc-ee90-4f53-aeda-dd4a54859500"/><linearGradient id="f37c497a-7e2f-407b-8e9c-dce9a636c675" x1="11.836" y1="20.713" x2="11.836" y2="8.607" gradientTransform="matrix(1, 0, 0, 1, 0, 0)" xlink:href="#bde03cbc-ee90-4f53-aeda-dd4a54859500"/><linearGradient id="a1b99124-3abb-46a8-80b2-187404006e01" x1="7.308" y1="20.713" x2="7.308" y2="8.607" gradientTransform="matrix(1, 0, 0, 1, 0, 0)" xlink:href="#bde03cbc-ee90-4f53-aeda-dd4a54859500"/><linearGradient id="b3c03ab4-55d8-4934-babd-5db765ba6364" x1="4.942" y1="20.713" x2="4.942" y2="8.607" gradientTransform="matrix(1, 0, 0, 1, 0, 0)" xlink:href="#bde03cbc-ee90-4f53-aeda-dd4a54859500"/><linearGradient id="e5454780-b2ba-43c1-81d7-3ecdddc4e9db" x1="11.84" y1="20.591" x2="11.84" y2="8.485" gradientTransform="matrix(1, 0, 0, 1, 0, 0)" xlink:href="#bde03cbc-ee90-4f53-aeda-dd4a54859500"/><linearGradient id="fc588a10-c654-47de-922e-e57f86ffa0d3" x1="8.193" y1="20.591" x2="8.193" y2="8.485" gradientTransform="matrix(1, 0, 0, 1, 0, 0)" xlink:href="#bde03cbc-ee90-4f53-aeda-dd4a54859500"/></defs><title>logo-shop</title><path class="a1b41df1-56ad-490c-8e3d-465b00169405" d="M8.93,4.5l1.6,4.463a1.389,1.389,0,0,0,1.3.918h11.4a.248.248,0,0,1,.236.321l-.226.742a.249.249,0,0,1-.237.174H13.3a1.419,1.419,0,0,0-.856.274,1.387,1.387,0,0,0-.475,1.582l1.293,3.588a1.388,1.388,0,0,0,1.3.916h.314a1.5,1.5,0,0,1,2.911,0l2.274,0a1.5,1.5,0,0,1,2.908,0h.612a.4.4,0,0,0,.375-.275l.551-1.761a.393.393,0,0,0-.376-.51l-8.58.009a.247.247,0,0,1-.232-.164l-.279-.772a.248.248,0,0,1,.233-.331h8.767a1.378,1.378,0,0,0,1.325-.979l1.09-3.559a1.385,1.385,0,0,0-1.325-1.791h-12.1a.539.539,0,0,1-.508-.358L11.54,4.233a.4.4,0,0,0-.371-.261H9.3A.393.393,0,0,0,8.93,4.5Z" transform="translate(-4.435 -3.972)"/><path class="f8fa605e-e1f5-4b69-8dce-b3e61bbbb5f6" d="M20.38,17.84A1.137,1.137,0,1,0,21.517,16.7,1.137,1.137,0,0,0,20.38,17.84Z" transform="translate(-4.435 -3.972)"/><circle class="b2f56ba4-fb6c-4422-a536-22eae60cd3d6" cx="11.899" cy="13.868" r="1.137"/><path class="bbe7c4a5-da07-4b36-8e0e-ef74619c7a92" d="M9.6,18.983h4.48a.431.431,0,0,0,.431-.43h0a.431.431,0,0,0-.431-.431H9.6a.43.43,0,0,0-.43.431h0A.43.43,0,0,0,9.6,18.983Z" transform="translate(-4.435 -3.972)"/><path class="ac98dee6-8b37-495a-ada8-c3c195292126" d="M6.487,18.983H8.129a.431.431,0,0,0,.43-.43h0a.431.431,0,0,0-.43-.431H6.487a.43.43,0,0,0-.43.431h0A.43.43,0,0,0,6.487,18.983Z" transform="translate(-4.435 -3.972)"/><path class="f3566a1c-4c05-43f2-b41a-beff995201d2" d="M4.865,18.983H5.02a.431.431,0,0,0,.43-.43h0a.431.431,0,0,0-.43-.431H4.865a.43.43,0,0,0-.43.431h0A.43.43,0,0,0,4.865,18.983Z" transform="translate(-4.435 -3.972)"/><path class="e4cbd224-dc58-4586-84ef-0f031026104f" d="M11.294,17.57h1.091a.43.43,0,0,0,.43-.431h0a.43.43,0,0,0-.43-.431H11.294a.43.43,0,0,0-.43.431h0A.43.43,0,0,0,11.294,17.57Z" transform="translate(-4.435 -3.972)"/><path class="b97d9d08-28ab-4b93-8e29-ba8171d613e8" d="M6.563,17.57h3.26a.431.431,0,0,0,.431-.431h0a.431.431,0,0,0-.431-.431H6.563a.43.43,0,0,0-.43.431h0A.43.43,0,0,0,6.563,17.57Z" transform="translate(-4.435 -3.972)"/></svg>