<?xml version="1.0" encoding="utf-8"?>
<!-- Generator: Adobe Illustrator 21.0.2, SVG Export Plug-In . SVG Version: 6.00 Build 0)  -->
<svg version="1.1" id="Layer_1" xmlns="http://www.w3.org/2000/svg" xmlns:xlink="http://www.w3.org/1999/xlink" x="0px" y="0px"
	 width="150px" height="25.1px" viewBox="0 0 150 25.1" enable-background="new 0 0 150 25.1" xml:space="preserve">
<g>
	<path fill="#EF4430" d="M24.7,12.8c0-6.8-5.5-12.3-12.3-12.3C5.5,0.4,0,6,0,12.8c0,6.8,5.5,12.3,12.3,12.3
		C19.2,25.1,24.7,19.6,24.7,12.8"/>
	<rect x="95.3" y="7.1" width="6.4" height="17.2"/>
	<path d="M68.7,24.3l-2.4-8.1L63,24.3H50.3V12.9h-4.1v11.4h-6.5V7.1h17v11.8l1.7,0l4.8-10.7L60.1,0H67c0,0,6.5,18.3,8.5,24.3H68.7z"
		/>
	<path d="M140.6,6.7c-5.2,0-9.5,3.8-9.5,9c0,5.2,4.3,9,9.5,9c5,0,9.4-3.8,9.4-9C150,10.5,145.6,6.7,140.6,6.7 M140.6,18.8
		c-1.9,0-3.1-1.4-3.1-3.1c0-1.9,1.2-3.1,3.1-3.1c1.8,0,3,1.2,3,3.1C143.6,17.5,142.4,18.8,140.6,18.8"/>
	<path d="M84.2,12.5c1.8,0,3.1,1.3,3.2,3.2v0.1c0,1.9-1.5,3.4-3.2,3.4c-1.9,0-3.4-1.5-3.4-3.4C80.8,13.9,82.3,12.5,84.2,12.5
		 M83.6,6.7c-5,0-8.9,3.8-8.9,8.9c0,5.1,3.9,9,8.9,9c1.5,0,3-0.4,4.2-1.2l0.4,0.8h5.1V7.1h-5.1l-0.4,0.8C86.6,7.1,85.1,6.7,83.6,6.7
		"/>
	<path d="M112.5,12.7c1.9,0,3.2,1.3,3.2,3.2c0,1.9-1.3,3.2-3.2,3.2c-2,0-3.4-1.3-3.4-3.2C109.1,14,110.6,12.7,112.5,12.7 M129.7,7.1
		h-17.2c-5.4,0-9.3,3.8-9.3,8.8c0,5.1,4.2,8.8,9.3,8.8c5.1,0,8.9-3.5,8.9-8.1c0-1.5-0.4-2.8-1.2-4h3v11.7h6.5V7.1z"/>
</g>
</svg>
