<svg xmlns="http://www.w3.org/2000/svg" xmlns:xlink="http://www.w3.org/1999/xlink" width="63.722" height="76.658" viewBox="0 0 63.722 76.658"><defs><filter id="a" x="0" y="0" width="63.722" height="76.658" filterUnits="userSpaceOnUse"><feOffset dy="3" input="SourceAlpha"/><feGaussianBlur stdDeviation="3" result="b"/><feFlood flood-opacity="0.161"/><feComposite operator="in" in2="b"/><feComposite in="SourceGraphic"/></filter></defs><g transform="translate(-2.455 1.858)"><g transform="matrix(1, 0, 0, 1, 2.45, -1.86)" filter="url(#a)"><path d="M34.3,62.8l-6.6-8.1L16.8,41.2c-5.6-6.8-6.8-14.5-3.6-22.6A21.8,21.8,0,0,1,31,4.4,22.7,22.7,0,0,1,56.8,23.2a20.9,20.9,0,0,1-4.7,17.6c-5.4,6.5-10.5,13.1-15.8,19.7Zm-6.2-50a10.4,10.4,0,0,0-2.1,1c-3.8,2.5-5.9,6.2-6.9,10.6A7.1,7.1,0,0,1,18,26.9c-1,1.6-.5,3.1,1.3,3.5a7.4,7.4,0,0,0,2.1.1H49.1c2.1-.3,2.7-1.9,1.5-3.6a3.9,3.9,0,0,1-.8-2,15.6,15.6,0,0,0-6.2-10.6A20.4,20.4,0,0,0,41,12.8l-1,3.8h-.9c0-1.1-.2-2.2-.1-3.2a2.561,2.561,0,0,0-2.5-2.8H31.6a1.6,1.6,0,0,0-1.6,2,14.1,14.1,0,0,1-.1,2.9c-.1.4-.5.7-.8,1.1s-.7-.7-.8-1.1-.1-1.6-.2-2.7Zm6.1,21H21.6c-.7,0-1.8.2-2,.6a2.9,2.9,0,0,0,.4,2.2,15.9,15.9,0,0,0,13.2,7.9c6,.4,12.6-3,15.3-8.2.9-1.8.5-2.5-1.5-2.5Z" transform="translate(-2.45 1.86)" fill="#0475f7"/></g><path d="M28.1,12.8a18.5,18.5,0,0,0,.3,2.7c.1.4.5.7.8,1.1s.8-.7.8-1.1a27.1,27.1,0,0,0,.1-2.9,1.6,1.6,0,0,1,1.6-2,40.1,40.1,0,0,1,4.9-.1c1.8,0,2.6.9,2.5,2.8a25.53,25.53,0,0,0,.1,3.2h.9l1-3.8a20.4,20.4,0,0,1,2.6,1.4,15.6,15.6,0,0,1,6.2,10.6,5,5,0,0,0,.8,2c1.2,1.7.6,3.3-1.5,3.6H19.4C17.5,30,17,28.5,18,26.9a8,8,0,0,0,1.1-2.5A15.7,15.7,0,0,1,26,13.8a10.4,10.4,0,0,1,2.1-1Z" fill="#f2c438"/><path d="M34.2,33.8H47c1.9,0,2.4.8,1.5,2.5-2.7,5.3-9.3,8.7-15.3,8.2A16,16,0,0,1,20,36.6a2.9,2.9,0,0,1-.4-2.2c.1-.4,1.3-.6,2-.6Z" fill="#fff"/></g></svg>